<?xml version="1.0" encoding="utf-8"?>
<!-- Generator: Adobe Illustrator 17.0.0, SVG Export Plug-In . SVG Version: 6.00 Build 0)  -->
<!DOCTYPE svg PUBLIC "-//W3C//DTD SVG 1.1//EN" "http://www.w3.org/Graphics/SVG/1.1/DTD/svg11.dtd">
<svg version="1.1" id="Layer_1" xmlns="http://www.w3.org/2000/svg" xmlns:xlink="http://www.w3.org/1999/xlink" x="0px" y="0px"
	 width="200px" height="47.668px" viewBox="-22 158.766 200 47.668" enable-background="new -22 158.766 200 47.668"
	 xml:space="preserve">
<g>
	<g id="XMLID_10_">
		<g id="XMLID_274_">
			<path id="XMLID_297_" fill="#E88424" d="M48.855,172.626c-1.425,0-2.461,0.518-2.461,1.943v1.554h2.85v3.627h-2.85v12.435h-4.793
				V179.75h-1.813v-3.627h1.813v-1.554c0-4.016,2.591-5.829,6.347-5.829c0.518,0,1.166,0,1.684,0.13v3.756
				C49.373,172.626,49.114,172.626,48.855,172.626z"/>
			<path id="XMLID_294_" fill="#F0EEEE" d="M58.959,192.574c-5.052,0-7.513-1.813-7.513-5.311c0-4.275,4.404-5.181,9.197-5.57
				v-0.648c0-1.295-0.907-1.813-2.591-1.813c-1.554,0-3.368,0.518-4.534,1.036l-1.166-3.238c1.425-0.518,3.886-1.166,6.347-1.166
				c4.404,0,6.606,1.684,6.606,5.959v9.715C63.881,192.056,61.42,192.574,58.959,192.574z M60.513,184.802
				c-2.591,0.13-4.663,0.389-4.663,2.332c0,1.295,1.166,2.073,2.85,2.073c0.648,0,1.425-0.13,1.813-0.259
				C60.513,188.947,60.513,184.802,60.513,184.802z"/>
			<path id="XMLID_292_" fill="#F0EEEE" d="M78.13,192.186v-10.363c0-1.295-0.777-2.202-2.202-2.202
				c-0.648,0-1.425,0.13-1.813,0.389v12.306h-4.922V177.03c1.813-0.648,3.886-1.166,6.736-1.166c5.052,0,7.254,1.943,7.254,5.44
				v11.01L78.13,192.186L78.13,192.186z"/>
			<path id="XMLID_290_" fill="#F0EEEE" d="M91.601,192.574c-2.202,0-4.275-0.518-5.44-1.166l1.554-3.756
				c0.777,0.518,2.72,1.036,3.756,1.036c1.166,0,1.813-0.518,1.813-1.295c0-0.907-0.907-1.295-2.073-1.684
				c-1.943-0.648-4.663-1.684-4.663-4.922c0-2.979,2.332-4.922,6.218-4.922c2.202,0,3.886,0.518,5.181,1.166l-1.425,3.368
				c-0.648-0.389-2.073-0.907-3.109-0.907c-1.166,0-1.813,0.518-1.813,1.295c0,1.036,0.907,1.425,2.073,1.813
				c1.943,0.648,4.793,1.554,4.793,4.922C98.466,190.631,96.135,192.574,91.601,192.574z"/>
			<path id="XMLID_287_" fill="#F0EEEE" d="M115.953,184.802l-9.974,1.295c0.389,1.813,1.943,2.591,3.886,2.591
				c1.554,0,3.368-0.389,4.534-1.036l1.425,3.627c-1.425,0.648-3.886,1.166-6.347,1.166c-5.57,0-8.29-3.627-8.29-8.42
				c0-4.922,2.85-8.42,7.642-8.42c4.663,0,7.124,3.109,7.124,7.513C116.083,183.895,116.083,184.284,115.953,184.802z
				 M108.699,179.232c-1.684,0-3.109,1.166-3.109,3.886l5.699-0.777C111.29,180.398,110.383,179.232,108.699,179.232z"/>
			<path id="XMLID_285_" fill="#F0EEEE" d="M127.87,180.009c-0.518-0.13-1.166-0.259-1.813-0.259c-0.648,0-1.166,0.13-1.684,0.259
				v12.306h-4.922V177.03c1.813-0.648,4.145-1.166,6.995-1.166c0.907,0,1.813,0.13,2.332,0.13L127.87,180.009z"/>
			<path id="XMLID_282_" fill="#F0EEEE" d="M134.218,173.921c-1.425,0-2.72-1.166-2.72-2.591s1.166-2.591,2.72-2.591
				s2.72,1.166,2.72,2.591C136.938,172.885,135.642,173.921,134.218,173.921z M131.756,192.186v-16.062h4.922v16.062H131.756z"/>
			<path id="XMLID_279_" fill="#F0EEEE" d="M147.43,192.574c-5.052,0-7.513-1.813-7.513-5.311c0-4.275,4.404-5.181,9.197-5.57
				v-0.648c0-1.295-0.907-1.813-2.591-1.813c-1.554,0-3.368,0.518-4.534,1.036l-1.166-3.238c1.425-0.518,3.886-1.166,6.347-1.166
				c4.404,0,6.606,1.684,6.606,5.959v9.715C152.482,192.056,150.021,192.574,147.43,192.574z M149.114,184.802
				c-2.591,0.13-4.663,0.389-4.663,2.332c0,1.295,1.166,2.073,2.85,2.073c0.648,0,1.425-0.13,1.813-0.259V184.802L149.114,184.802z"
				/>
			<path id="XMLID_277_" fill="#F0EEEE" d="M157.793,192.186v-23.316h4.922v23.446L157.793,192.186L157.793,192.186z"/>
			<path id="XMLID_275_" fill="#F0EEEE" d="M171.135,192.574c-2.202,0-4.275-0.518-5.44-1.166l1.554-3.756
				c0.777,0.518,2.72,1.036,3.756,1.036c1.166,0,1.813-0.518,1.813-1.295c0-0.907-0.907-1.295-2.073-1.684
				c-1.943-0.648-4.663-1.684-4.663-4.922c0-2.979,2.332-4.922,6.218-4.922c2.202,0,3.886,0.518,5.181,1.166l-1.425,3.368
				c-0.648-0.389-2.073-0.907-3.109-0.907c-1.166,0-1.813,0.518-1.813,1.295c0,1.036,0.907,1.425,2.073,1.813
				c1.943,0.648,4.793,1.554,4.793,4.922C178,190.631,175.798,192.574,171.135,192.574z"/>
		</g>
	</g>
	<path id="XMLID_2_" fill="#F8A927" d="M1.316,160.191c-12.824,0-23.316,10.233-23.316,23.057s10.492,23.187,23.316,23.187
		s23.316-10.363,23.316-23.187S14.269,160.191,1.316,160.191z M-0.497,199.31c-9.197,0-16.71-7.383-16.71-16.451
		c0-9.067,7.513-16.321,16.71-16.321s16.71,7.383,16.71,16.451C16.212,192.056,8.699,199.31-0.497,199.31z"/>
	<path id="XMLID_7_" fill="#E88424" d="M1.316,158.766c-12.824,0-23.316,10.363-23.316,23.057c0,12.694,10.492,23.057,23.316,23.057
		c12.953,0,23.316-10.363,23.316-23.057C24.762,169.129,14.269,158.766,1.316,158.766z M-0.497,197.885
		c-9.197,0-16.71-7.383-16.71-16.321c0-8.938,7.513-16.451,16.71-16.451s16.71,7.254,16.71,16.192
		C16.212,190.372,8.829,197.885-0.497,197.885z"/>
	<path id="XMLID_4_" opacity="0.1" fill="#171717" enable-background="new    " d="M-11.119,164.983v33.808
		c0,0-0.13,1.166,1.036,1.813c0.389,0.259,1.036,0.389,1.943-0.13c3.368-1.813,27.85-17.358,27.85-17.358s2.591-1.943-0.13-3.627
		c-3.368-2.073-27.461-16.71-27.461-16.71s-1.295-0.648-2.461,0C-11.249,163.429-11.119,164.983-11.119,164.983z"/>
	<path id="XMLID_3_" fill="#FFFFFF" d="M-9.176,166.149v31.477c0,0-0.13,1.166,0.907,1.684c0.389,0.13,0.907,0.389,1.684-0.13
		c2.85-1.684,24.352-16.192,24.352-16.192s2.332-1.813-0.13-3.368c-2.85-1.943-23.964-15.544-23.964-15.544s-1.166-0.648-2.202,0
		C-9.176,164.595-9.176,166.149-9.176,166.149z"/>
</g>
</svg>
